<mxfile host="app.diagrams.net" agent="Mozilla/5.0 (Windows NT 10.0; Win64; x64) AppleWebKit/537.36 (KHTML, like Gecko) Chrome/140.0.0.0 Safari/537.36" version="28.2.5" pages="5">
  <diagram name="Pagina-1" id="G35LBx5plT8xm1ZT26f5">
    <mxGraphModel dx="2646" dy="588" grid="1" gridSize="10" guides="1" tooltips="1" connect="1" arrows="1" fold="1" page="1" pageScale="1" pageWidth="827" pageHeight="1169" math="0" shadow="0" adaptiveColors="none">
      <root>
        <mxCell id="0" />
        <mxCell id="1" parent="0" />
        <mxCell id="Z-Q_dhw1PTPRyKLEqdD1-336" value="" style="endArrow=classic;html=1;rounded=0;labelBackgroundColor=none;fontColor=default;" parent="1" edge="1">
          <mxGeometry relative="1" as="geometry">
            <mxPoint y="40" as="sourcePoint" />
            <Array as="points">
              <Point x="310" y="650" />
              <Point x="450" y="650" />
              <Point x="450" y="590" />
            </Array>
            <mxPoint y="40" as="targetPoint" />
          </mxGeometry>
        </mxCell>
        <mxCell id="Z-Q_dhw1PTPRyKLEqdD1-341" value="" style="endArrow=classic;html=1;rounded=0;labelBackgroundColor=none;fontColor=default;" parent="1" edge="1">
          <mxGeometry relative="1" as="geometry">
            <mxPoint x="15" y="15" as="sourcePoint" />
            <Array as="points">
              <Point x="785" y="830" />
              <Point x="750" y="830" />
              <Point x="750" y="850" />
            </Array>
            <mxPoint y="30" as="targetPoint" />
          </mxGeometry>
        </mxCell>
        <mxCell id="Z-Q_dhw1PTPRyKLEqdD1-342" value="" style="endArrow=classic;html=1;rounded=0;labelBackgroundColor=none;fontColor=default;" parent="1" edge="1">
          <mxGeometry relative="1" as="geometry">
            <mxPoint x="15" y="15" as="sourcePoint" />
            <Array as="points">
              <Point x="785" y="830" />
              <Point x="890" y="830" />
              <Point x="890" y="850" />
            </Array>
            <mxPoint y="30" as="targetPoint" />
          </mxGeometry>
        </mxCell>
        <mxCell id="Z-Q_dhw1PTPRyKLEqdD1-347" value="" style="endArrow=classic;html=1;rounded=0;labelBackgroundColor=none;fontColor=default;" parent="1" edge="1">
          <mxGeometry relative="1" as="geometry">
            <mxPoint y="40" as="sourcePoint" />
            <Array as="points">
              <Point x="620" y="320" />
              <Point x="460" y="320" />
              <Point x="460" y="290" />
            </Array>
            <mxPoint y="40" as="targetPoint" />
          </mxGeometry>
        </mxCell>
        <mxCell id="Z-Q_dhw1PTPRyKLEqdD1-433" value="" style="endArrow=classic;html=1;rounded=0;labelBackgroundColor=none;fontColor=default;" parent="1" edge="1">
          <mxGeometry relative="1" as="geometry">
            <mxPoint y="40" as="sourcePoint" />
            <Array as="points">
              <Point x="310" y="650" />
              <Point x="450" y="650" />
              <Point x="450" y="590" />
            </Array>
            <mxPoint y="40" as="targetPoint" />
          </mxGeometry>
        </mxCell>
        <mxCell id="Z-Q_dhw1PTPRyKLEqdD1-438" value="" style="endArrow=classic;html=1;rounded=0;labelBackgroundColor=none;fontColor=default;" parent="1" edge="1">
          <mxGeometry relative="1" as="geometry">
            <mxPoint x="15" y="15" as="sourcePoint" />
            <Array as="points">
              <Point x="785" y="830" />
              <Point x="750" y="830" />
              <Point x="750" y="850" />
            </Array>
            <mxPoint y="30" as="targetPoint" />
          </mxGeometry>
        </mxCell>
        <mxCell id="Z-Q_dhw1PTPRyKLEqdD1-439" value="" style="endArrow=classic;html=1;rounded=0;labelBackgroundColor=none;fontColor=default;" parent="1" edge="1">
          <mxGeometry relative="1" as="geometry">
            <mxPoint x="15" y="15" as="sourcePoint" />
            <Array as="points">
              <Point x="785" y="830" />
              <Point x="890" y="830" />
              <Point x="890" y="850" />
            </Array>
            <mxPoint y="30" as="targetPoint" />
          </mxGeometry>
        </mxCell>
        <mxCell id="Z-Q_dhw1PTPRyKLEqdD1-444" value="" style="endArrow=classic;html=1;rounded=0;labelBackgroundColor=none;fontColor=default;" parent="1" edge="1">
          <mxGeometry relative="1" as="geometry">
            <mxPoint y="40" as="sourcePoint" />
            <Array as="points">
              <Point x="620" y="320" />
              <Point x="460" y="320" />
              <Point x="460" y="290" />
            </Array>
            <mxPoint y="40" as="targetPoint" />
          </mxGeometry>
        </mxCell>
        <mxCell id="Z-Q_dhw1PTPRyKLEqdD1-530" value="" style="endArrow=classic;html=1;rounded=0;labelBackgroundColor=none;fontColor=default;" parent="1" edge="1">
          <mxGeometry relative="1" as="geometry">
            <mxPoint y="40" as="sourcePoint" />
            <Array as="points">
              <Point x="310" y="650" />
              <Point x="450" y="650" />
              <Point x="450" y="590" />
            </Array>
            <mxPoint y="40" as="targetPoint" />
          </mxGeometry>
        </mxCell>
        <mxCell id="Z-Q_dhw1PTPRyKLEqdD1-535" value="" style="endArrow=classic;html=1;rounded=0;labelBackgroundColor=none;fontColor=default;" parent="1" edge="1">
          <mxGeometry relative="1" as="geometry">
            <mxPoint x="15" y="15" as="sourcePoint" />
            <Array as="points">
              <Point x="785" y="830" />
              <Point x="750" y="830" />
              <Point x="750" y="850" />
            </Array>
            <mxPoint y="30" as="targetPoint" />
          </mxGeometry>
        </mxCell>
        <mxCell id="Z-Q_dhw1PTPRyKLEqdD1-536" value="" style="endArrow=classic;html=1;rounded=0;labelBackgroundColor=none;fontColor=default;" parent="1" edge="1">
          <mxGeometry relative="1" as="geometry">
            <mxPoint x="15" y="15" as="sourcePoint" />
            <Array as="points">
              <Point x="785" y="830" />
              <Point x="890" y="830" />
              <Point x="890" y="850" />
            </Array>
            <mxPoint y="-80" as="targetPoint" />
          </mxGeometry>
        </mxCell>
        <mxCell id="Z-Q_dhw1PTPRyKLEqdD1-541" value="" style="endArrow=classic;html=1;rounded=0;labelBackgroundColor=none;fontColor=default;" parent="1" edge="1">
          <mxGeometry relative="1" as="geometry">
            <mxPoint y="310" as="sourcePoint" />
            <Array as="points">
              <Point x="620" y="320" />
              <Point x="460" y="320" />
              <Point x="460" y="290" />
            </Array>
            <mxPoint y="40" as="targetPoint" />
          </mxGeometry>
        </mxCell>
        <mxCell id="727kzfvljl4_6yUcOHtt-1" value="" style="endArrow=classic;html=1;rounded=0;labelBackgroundColor=none;fontColor=default;" parent="1" edge="1">
          <mxGeometry relative="1" as="geometry">
            <mxPoint y="40" as="sourcePoint" />
            <Array as="points">
              <Point x="310" y="650" />
              <Point x="450" y="650" />
              <Point x="450" y="590" />
            </Array>
            <mxPoint y="40" as="targetPoint" />
          </mxGeometry>
        </mxCell>
        <mxCell id="727kzfvljl4_6yUcOHtt-2" value="" style="endArrow=classic;html=1;rounded=0;labelBackgroundColor=none;fontColor=default;" parent="1" edge="1">
          <mxGeometry relative="1" as="geometry">
            <mxPoint x="15" y="15" as="sourcePoint" />
            <Array as="points">
              <Point x="785" y="830" />
              <Point x="750" y="830" />
              <Point x="750" y="850" />
            </Array>
            <mxPoint y="30" as="targetPoint" />
          </mxGeometry>
        </mxCell>
        <mxCell id="727kzfvljl4_6yUcOHtt-3" value="" style="endArrow=classic;html=1;rounded=0;labelBackgroundColor=none;fontColor=default;" parent="1" edge="1">
          <mxGeometry relative="1" as="geometry">
            <mxPoint x="15" y="15" as="sourcePoint" />
            <Array as="points">
              <Point x="785" y="830" />
              <Point x="890" y="830" />
              <Point x="890" y="850" />
            </Array>
            <mxPoint y="30" as="targetPoint" />
          </mxGeometry>
        </mxCell>
        <mxCell id="727kzfvljl4_6yUcOHtt-4" value="" style="endArrow=classic;html=1;rounded=0;labelBackgroundColor=none;fontColor=default;" parent="1" edge="1">
          <mxGeometry relative="1" as="geometry">
            <mxPoint y="40" as="sourcePoint" />
            <Array as="points">
              <Point x="620" y="320" />
              <Point x="460" y="320" />
              <Point x="460" y="290" />
            </Array>
            <mxPoint y="40" as="targetPoint" />
          </mxGeometry>
        </mxCell>
        <mxCell id="727kzfvljl4_6yUcOHtt-5" value="" style="endArrow=classic;html=1;rounded=0;labelBackgroundColor=none;fontColor=default;" parent="1" edge="1">
          <mxGeometry relative="1" as="geometry">
            <mxPoint y="40" as="sourcePoint" />
            <Array as="points">
              <Point x="310" y="650" />
              <Point x="450" y="650" />
              <Point x="450" y="590" />
            </Array>
            <mxPoint y="40" as="targetPoint" />
          </mxGeometry>
        </mxCell>
        <mxCell id="727kzfvljl4_6yUcOHtt-6" value="" style="endArrow=classic;html=1;rounded=0;labelBackgroundColor=none;fontColor=default;" parent="1" edge="1">
          <mxGeometry relative="1" as="geometry">
            <mxPoint x="15" y="15" as="sourcePoint" />
            <Array as="points">
              <Point x="785" y="830" />
              <Point x="750" y="830" />
              <Point x="750" y="850" />
            </Array>
            <mxPoint y="30" as="targetPoint" />
          </mxGeometry>
        </mxCell>
        <mxCell id="727kzfvljl4_6yUcOHtt-7" value="" style="endArrow=classic;html=1;rounded=0;labelBackgroundColor=none;fontColor=default;" parent="1" edge="1">
          <mxGeometry relative="1" as="geometry">
            <mxPoint x="15" y="15" as="sourcePoint" />
            <Array as="points">
              <Point x="785" y="830" />
              <Point x="890" y="830" />
              <Point x="890" y="850" />
            </Array>
            <mxPoint y="30" as="targetPoint" />
          </mxGeometry>
        </mxCell>
        <mxCell id="727kzfvljl4_6yUcOHtt-8" value="" style="endArrow=classic;html=1;rounded=0;labelBackgroundColor=none;fontColor=default;" parent="1" edge="1">
          <mxGeometry relative="1" as="geometry">
            <mxPoint y="40" as="sourcePoint" />
            <Array as="points">
              <Point x="620" y="320" />
              <Point x="460" y="320" />
              <Point x="460" y="290" />
            </Array>
            <mxPoint y="40" as="targetPoint" />
          </mxGeometry>
        </mxCell>
        <mxCell id="727kzfvljl4_6yUcOHtt-9" value="" style="endArrow=classic;html=1;rounded=0;labelBackgroundColor=none;fontColor=default;" parent="1" edge="1">
          <mxGeometry relative="1" as="geometry">
            <mxPoint y="40" as="sourcePoint" />
            <Array as="points">
              <Point x="310" y="650" />
              <Point x="450" y="650" />
              <Point x="450" y="590" />
            </Array>
            <mxPoint y="40" as="targetPoint" />
          </mxGeometry>
        </mxCell>
        <mxCell id="727kzfvljl4_6yUcOHtt-10" value="" style="endArrow=classic;html=1;rounded=0;labelBackgroundColor=none;fontColor=default;" parent="1" edge="1">
          <mxGeometry relative="1" as="geometry">
            <mxPoint x="15" y="15" as="sourcePoint" />
            <Array as="points">
              <Point x="785" y="830" />
              <Point x="750" y="830" />
              <Point x="750" y="850" />
            </Array>
            <mxPoint y="30" as="targetPoint" />
          </mxGeometry>
        </mxCell>
        <mxCell id="727kzfvljl4_6yUcOHtt-11" value="" style="endArrow=classic;html=1;rounded=0;labelBackgroundColor=none;fontColor=default;" parent="1" edge="1">
          <mxGeometry relative="1" as="geometry">
            <mxPoint x="15" y="15" as="sourcePoint" />
            <Array as="points">
              <Point x="785" y="830" />
              <Point x="890" y="830" />
              <Point x="890" y="850" />
            </Array>
            <mxPoint y="-80" as="targetPoint" />
          </mxGeometry>
        </mxCell>
        <mxCell id="727kzfvljl4_6yUcOHtt-12" value="" style="endArrow=classic;html=1;rounded=0;labelBackgroundColor=none;fontColor=default;" parent="1" edge="1">
          <mxGeometry relative="1" as="geometry">
            <mxPoint y="310" as="sourcePoint" />
            <Array as="points">
              <Point x="620" y="320" />
              <Point x="460" y="320" />
              <Point x="460" y="290" />
            </Array>
            <mxPoint y="40" as="targetPoint" />
          </mxGeometry>
        </mxCell>
        <mxCell id="727kzfvljl4_6yUcOHtt-13" value="" style="whiteSpace=wrap;html=1;aspect=fixed;fillColor=#f5f5f5;strokeColor=#666666;" parent="1" vertex="1">
          <mxGeometry x="1260" y="1400" width="850" height="980" as="geometry" />
        </mxCell>
        <mxCell id="727kzfvljl4_6yUcOHtt-14" value="" style="whiteSpace=wrap;html=1;fillColor=#1a1a1a;fontColor=#ffffff;fontSize=10;" parent="1" vertex="1">
          <mxGeometry x="1260" y="1400" width="850" height="60" as="geometry" />
        </mxCell>
        <mxCell id="727kzfvljl4_6yUcOHtt-15" value="LOGO &lt;br&gt;&lt;i&gt;Testua&lt;/i&gt;" style="text;html=1;strokeColor=none;fillColor=none;align=center;verticalAlign=middle;whiteSpace=wrap;rounded=0;fontColor=#ff0000;fontSize=18;fontStyle=1;" parent="1" vertex="1">
          <mxGeometry x="1280" y="1410" width="120" height="40" as="geometry" />
        </mxCell>
        <mxCell id="727kzfvljl4_6yUcOHtt-16" value="&lt;b&gt;Orrialde Nagusia&lt;/b&gt;" style="text;html=1;strokeColor=none;fillColor=none;align=center;verticalAlign=middle;whiteSpace=wrap;rounded=0;fontColor=#ff0000;fontSize=12;" parent="1" vertex="1">
          <mxGeometry x="1540" y="1420" width="110" height="20" as="geometry" />
        </mxCell>
        <mxCell id="727kzfvljl4_6yUcOHtt-17" value="&lt;b&gt;Karteldegia&lt;/b&gt;" style="text;html=1;strokeColor=none;fillColor=none;align=center;verticalAlign=middle;whiteSpace=wrap;rounded=0;fontColor=#ffffff;fontSize=12;" parent="1" vertex="1">
          <mxGeometry x="1660" y="1420" width="80" height="20" as="geometry" />
        </mxCell>
        <mxCell id="727kzfvljl4_6yUcOHtt-18" value="&lt;b&gt;Informazioa&lt;/b&gt;" style="text;html=1;strokeColor=none;fillColor=none;align=center;verticalAlign=middle;whiteSpace=wrap;rounded=0;fontColor=#ffffff;fontSize=12;" parent="1" vertex="1">
          <mxGeometry x="1750" y="1420" width="80" height="20" as="geometry" />
        </mxCell>
        <mxCell id="727kzfvljl4_6yUcOHtt-19" value="&lt;b&gt;Balorazioak&lt;/b&gt;" style="text;html=1;strokeColor=none;fillColor=none;align=center;verticalAlign=middle;whiteSpace=wrap;rounded=0;fontColor=#ffffff;fontSize=12;" parent="1" vertex="1">
          <mxGeometry x="1840" y="1420" width="80" height="20" as="geometry" />
        </mxCell>
        <mxCell id="727kzfvljl4_6yUcOHtt-20" value="&lt;b&gt;Saskia&lt;/b&gt;" style="text;html=1;strokeColor=none;fillColor=none;align=center;verticalAlign=middle;whiteSpace=wrap;rounded=0;fontColor=#ffffff;fontSize=12;" parent="1" vertex="1">
          <mxGeometry x="1930" y="1420" width="60" height="20" as="geometry" />
        </mxCell>
        <mxCell id="727kzfvljl4_6yUcOHtt-21" value="☰" style="text;html=1;strokeColor=none;fillColor=none;align=center;verticalAlign=middle;whiteSpace=wrap;rounded=0;fontColor=#ffffff;fontSize=24;fontStyle=1;" parent="1" vertex="1">
          <mxGeometry x="2040" y="1410" width="30" height="40" as="geometry" />
        </mxCell>
        <mxCell id="727kzfvljl4_6yUcOHtt-22" value="" style="whiteSpace=wrap;html=1;fillColor=#333333;strokeColor=none;" parent="1" vertex="1">
          <mxGeometry x="1260" y="1460" width="850" height="350" as="geometry" />
        </mxCell>
        <mxCell id="727kzfvljl4_6yUcOHtt-23" value="FILM NAGUSIAREN IZENBURUA (Estreinaldi Hoberena)" style="text;html=1;strokeColor=none;fillColor=none;align=left;verticalAlign=middle;whiteSpace=wrap;rounded=0;fontColor=#ffffff;fontSize=36;fontStyle=1;" parent="1" vertex="1">
          <mxGeometry x="1290" y="1530" width="600" height="50" as="geometry" />
        </mxCell>
        <mxCell id="727kzfvljl4_6yUcOHtt-24" value="Sinopsiaren esaldi indartsuena eta Laburpena. Generoa | Iraupena | Ikus-entzule kalifikazioa." style="text;html=1;strokeColor=none;fillColor=none;align=left;verticalAlign=top;whiteSpace=wrap;rounded=0;fontColor=#cccccc;fontSize=16;" parent="1" vertex="1">
          <mxGeometry x="1290" y="1590" width="650" height="40" as="geometry" />
        </mxCell>
        <mxCell id="727kzfvljl4_6yUcOHtt-25" value="SARRERAK EROSI" style="whiteSpace=wrap;html=1;fillColor=#ff0000;fontColor=#ffffff;strokeColor=#990000;rounded=1;fontStyle=1;fontSize=18;cursor=pointer;" parent="1" vertex="1">
          <mxGeometry x="1290" y="1650" width="220" height="45" as="geometry" />
        </mxCell>
        <mxCell id="727kzfvljl4_6yUcOHtt-26" value="Trailerra Ikusi" style="whiteSpace=wrap;html=1;fillColor=#ffcc00;fontColor=#333333;strokeColor=#cc9900;rounded=1;fontStyle=1;fontSize=18;cursor=pointer;" parent="1" vertex="1">
          <mxGeometry x="1530" y="1650" width="220" height="45" as="geometry" />
        </mxCell>
        <mxCell id="727kzfvljl4_6yUcOHtt-27" value="&lt;b&gt;LARUNBATEKO FILMAK&lt;/b&gt;" style="text;html=1;strokeColor=none;fillColor=none;align=left;verticalAlign=middle;whiteSpace=wrap;rounded=0;fontSize=20;fontStyle=1;" parent="1" vertex="1">
          <mxGeometry x="1280" y="1840" width="400" height="30" as="geometry" />
        </mxCell>
        <mxCell id="727kzfvljl4_6yUcOHtt-28" value="" style="whiteSpace=wrap;html=1;fillColor=#cccccc;strokeColor=#999999;" parent="1" vertex="1">
          <mxGeometry x="1280" y="1880" width="150" height="150" as="geometry" />
        </mxCell>
        <mxCell id="727kzfvljl4_6yUcOHtt-29" value="Erosi" style="whiteSpace=wrap;html=1;fillColor=#ff0000;fontColor=#ffffff;strokeColor=#990000;rounded=1;fontSize=10;cursor=pointer;" parent="1" vertex="1">
          <mxGeometry x="1280" y="2000" width="150" height="30" as="geometry" />
        </mxCell>
        <mxCell id="727kzfvljl4_6yUcOHtt-30" value="" style="whiteSpace=wrap;html=1;fillColor=#cccccc;strokeColor=#999999;" parent="1" vertex="1">
          <mxGeometry x="1450" y="1880" width="150" height="150" as="geometry" />
        </mxCell>
        <mxCell id="727kzfvljl4_6yUcOHtt-31" value="Erosi" style="whiteSpace=wrap;html=1;fillColor=#ff0000;fontColor=#ffffff;strokeColor=#990000;rounded=1;fontSize=10;cursor=pointer;" parent="1" vertex="1">
          <mxGeometry x="1450" y="2000" width="150" height="30" as="geometry" />
        </mxCell>
        <mxCell id="727kzfvljl4_6yUcOHtt-32" value="" style="whiteSpace=wrap;html=1;fillColor=#cccccc;strokeColor=#999999;" parent="1" vertex="1">
          <mxGeometry x="1620" y="1880" width="150" height="150" as="geometry" />
        </mxCell>
        <mxCell id="727kzfvljl4_6yUcOHtt-33" value="Erosi" style="whiteSpace=wrap;html=1;fillColor=#ff0000;fontColor=#ffffff;strokeColor=#990000;rounded=1;fontSize=10;cursor=pointer;" parent="1" vertex="1">
          <mxGeometry x="1620" y="2000" width="150" height="30" as="geometry" />
        </mxCell>
        <mxCell id="727kzfvljl4_6yUcOHtt-34" value="" style="whiteSpace=wrap;html=1;fillColor=#cccccc;strokeColor=#999999;" parent="1" vertex="1">
          <mxGeometry x="1790" y="1880" width="150" height="150" as="geometry" />
        </mxCell>
        <mxCell id="727kzfvljl4_6yUcOHtt-35" value="Erosi" style="whiteSpace=wrap;html=1;fillColor=#ff0000;fontColor=#ffffff;strokeColor=#990000;rounded=1;fontSize=10;cursor=pointer;" parent="1" vertex="1">
          <mxGeometry x="1790" y="2000" width="150" height="30" as="geometry" />
        </mxCell>
        <mxCell id="727kzfvljl4_6yUcOHtt-36" value="IGANDEKO FILMAK" style="text;html=1;strokeColor=none;fillColor=none;align=left;verticalAlign=middle;whiteSpace=wrap;rounded=0;fontSize=20;fontStyle=1;" parent="1" vertex="1">
          <mxGeometry x="1280" y="2060" width="400" height="30" as="geometry" />
        </mxCell>
        <mxCell id="727kzfvljl4_6yUcOHtt-37" value="" style="whiteSpace=wrap;html=1;fillColor=#1a1a1a;strokeColor=none;fontColor=#ffffff;fontSize=10;" parent="1" vertex="1">
          <mxGeometry x="1260" y="2270" width="850" height="110" as="geometry" />
        </mxCell>
        <mxCell id="727kzfvljl4_6yUcOHtt-38" value="&lt;u&gt;LOGO eta Testua&lt;/u&gt;" style="text;html=1;strokeColor=none;fillColor=none;align=left;verticalAlign=middle;whiteSpace=wrap;rounded=0;fontColor=#ffffff;fontSize=14;fontStyle=1;" parent="1" vertex="1">
          <mxGeometry x="1280" y="2280" width="150" height="20" as="geometry" />
        </mxCell>
        <mxCell id="727kzfvljl4_6yUcOHtt-39" value="&lt;u&gt;Nabigazioa&lt;/u&gt;&lt;br&gt;Orrialde Nagusia | Karteldegia | Informazioa | Balorazioak | Saskia" style="text;html=1;strokeColor=none;fillColor=none;align=left;verticalAlign=top;whiteSpace=wrap;rounded=0;fontColor=#cccccc;fontSize=12;" parent="1" vertex="1">
          <mxGeometry x="1450" y="2280" width="400" height="50" as="geometry" />
        </mxCell>
        <mxCell id="727kzfvljl4_6yUcOHtt-40" value="&lt;u&gt;Legala Partea&lt;/u&gt;&lt;br&gt;Lege-Oharra | Pribatutasun-politika" style="text;html=1;strokeColor=none;fillColor=none;align=left;verticalAlign=top;whiteSpace=wrap;rounded=0;fontColor=#cccccc;fontSize=12;" parent="1" vertex="1">
          <mxGeometry x="1860" y="2280" width="230" height="50" as="geometry" />
        </mxCell>
        <mxCell id="727kzfvljl4_6yUcOHtt-41" value="" style="whiteSpace=wrap;html=1;fillColor=#cccccc;strokeColor=#999999;" parent="1" vertex="1">
          <mxGeometry x="1280" y="2110" width="150" height="150" as="geometry" />
        </mxCell>
        <mxCell id="727kzfvljl4_6yUcOHtt-42" value="Erosi" style="whiteSpace=wrap;html=1;fillColor=#ff0000;fontColor=#ffffff;strokeColor=#990000;rounded=1;fontSize=10;cursor=pointer;" parent="1" vertex="1">
          <mxGeometry x="1280" y="2230" width="150" height="30" as="geometry" />
        </mxCell>
        <mxCell id="727kzfvljl4_6yUcOHtt-43" value="" style="whiteSpace=wrap;html=1;fillColor=#cccccc;strokeColor=#999999;" parent="1" vertex="1">
          <mxGeometry x="1450" y="2110" width="150" height="150" as="geometry" />
        </mxCell>
        <mxCell id="727kzfvljl4_6yUcOHtt-44" value="Erosi" style="whiteSpace=wrap;html=1;fillColor=#ff0000;fontColor=#ffffff;strokeColor=#990000;rounded=1;fontSize=10;cursor=pointer;" parent="1" vertex="1">
          <mxGeometry x="1450" y="2230" width="150" height="30" as="geometry" />
        </mxCell>
        <mxCell id="727kzfvljl4_6yUcOHtt-45" value="" style="whiteSpace=wrap;html=1;fillColor=#cccccc;strokeColor=#999999;" parent="1" vertex="1">
          <mxGeometry x="1620" y="2110" width="150" height="150" as="geometry" />
        </mxCell>
        <mxCell id="727kzfvljl4_6yUcOHtt-46" value="Erosi" style="whiteSpace=wrap;html=1;fillColor=#ff0000;fontColor=#ffffff;strokeColor=#990000;rounded=1;fontSize=10;cursor=pointer;" parent="1" vertex="1">
          <mxGeometry x="1620" y="2230" width="150" height="30" as="geometry" />
        </mxCell>
        <mxCell id="727kzfvljl4_6yUcOHtt-47" value="" style="whiteSpace=wrap;html=1;fillColor=#cccccc;strokeColor=#999999;" parent="1" vertex="1">
          <mxGeometry x="1790" y="2110" width="150" height="150" as="geometry" />
        </mxCell>
        <mxCell id="727kzfvljl4_6yUcOHtt-48" value="Erosi" style="whiteSpace=wrap;html=1;fillColor=#ff0000;fontColor=#ffffff;strokeColor=#990000;rounded=1;fontSize=10;cursor=pointer;" parent="1" vertex="1">
          <mxGeometry x="1790" y="2230" width="150" height="30" as="geometry" />
        </mxCell>
        <mxCell id="727kzfvljl4_6yUcOHtt-49" value="GEHIAGO IKUSI" style="whiteSpace=wrap;html=1;fillColor=#b1ddf0;strokeColor=#10739e;rounded=1;fontSize=10;cursor=pointer;" parent="1" vertex="1">
          <mxGeometry x="1950" y="1940" width="150" height="30" as="geometry" />
        </mxCell>
        <mxCell id="727kzfvljl4_6yUcOHtt-50" value="GEHIAGO IKUSI" style="whiteSpace=wrap;html=1;fillColor=#b1ddf0;strokeColor=#10739e;rounded=1;fontSize=10;cursor=pointer;" parent="1" vertex="1">
          <mxGeometry x="1950" y="2170" width="150" height="30" as="geometry" />
        </mxCell>
      </root>
    </mxGraphModel>
  </diagram>
  <diagram name="Página-2" id="kDFlDyl0-gdwtZXVM9cU">
    <mxGraphModel dx="2316" dy="1171" grid="1" gridSize="10" guides="1" tooltips="1" connect="1" arrows="1" fold="1" page="1" pageScale="1" pageWidth="827" pageHeight="1169" math="0" shadow="0" adaptiveColors="none">
      <root>
        <mxCell id="0" />
        <mxCell id="1" parent="0" />
        <mxCell id="85v2RrQ9yKnMD5LOBowl-1" value="" style="whiteSpace=wrap;html=1;aspect=fixed;fillColor=#f5f5f5;strokeColor=#666666;" vertex="1" parent="1">
          <mxGeometry x="400" y="200" width="850" height="980" as="geometry" />
        </mxCell>
        <mxCell id="85v2RrQ9yKnMD5LOBowl-2" value="" style="whiteSpace=wrap;html=1;fillColor=#1a1a1a;fontColor=#ffffff;fontSize=10;" vertex="1" parent="1">
          <mxGeometry x="400" y="150" width="850" height="60" as="geometry" />
        </mxCell>
        <mxCell id="85v2RrQ9yKnMD5LOBowl-3" value="LOGO &lt;br&gt;&lt;i&gt;Testua&lt;/i&gt;" style="text;html=1;strokeColor=none;fillColor=none;align=center;verticalAlign=middle;whiteSpace=wrap;rounded=0;fontColor=#ff0000;fontSize=18;fontStyle=1" vertex="1" parent="1">
          <mxGeometry x="420" y="160" width="120" height="40" as="geometry" />
        </mxCell>
        <mxCell id="85v2RrQ9yKnMD5LOBowl-4" value="&lt;b&gt;Orrialde Nagusia&lt;/b&gt;" style="text;html=1;strokeColor=none;fillColor=none;align=center;verticalAlign=middle;whiteSpace=wrap;rounded=0;fontColor=#ffffff;fontSize=12;" vertex="1" parent="1">
          <mxGeometry x="680" y="170" width="110" height="20" as="geometry" />
        </mxCell>
        <mxCell id="85v2RrQ9yKnMD5LOBowl-5" value="&lt;b&gt;Kartelera&lt;/b&gt;" style="text;html=1;strokeColor=none;fillColor=none;align=center;verticalAlign=middle;whiteSpace=wrap;rounded=0;fontColor=#ff0000;fontSize=12;" vertex="1" parent="1">
          <mxGeometry x="800" y="170" width="80" height="20" as="geometry" />
        </mxCell>
        <mxCell id="85v2RrQ9yKnMD5LOBowl-6" value="&lt;b&gt;Informazioa&lt;/b&gt;" style="text;html=1;strokeColor=none;fillColor=none;align=center;verticalAlign=middle;whiteSpace=wrap;rounded=0;fontColor=#ffffff;fontSize=12;" vertex="1" parent="1">
          <mxGeometry x="890" y="170" width="80" height="20" as="geometry" />
        </mxCell>
        <mxCell id="85v2RrQ9yKnMD5LOBowl-7" value="&lt;b&gt;Balorazioak&lt;/b&gt;" style="text;html=1;strokeColor=none;fillColor=none;align=center;verticalAlign=middle;whiteSpace=wrap;rounded=0;fontColor=#ffffff;fontSize=12;" vertex="1" parent="1">
          <mxGeometry x="980" y="170" width="80" height="20" as="geometry" />
        </mxCell>
        <mxCell id="85v2RrQ9yKnMD5LOBowl-8" value="&lt;b&gt;Saskia&lt;/b&gt;" style="text;html=1;strokeColor=none;fillColor=none;align=center;verticalAlign=middle;whiteSpace=wrap;rounded=0;fontColor=#ffffff;fontSize=12;" vertex="1" parent="1">
          <mxGeometry x="1070" y="170" width="60" height="20" as="geometry" />
        </mxCell>
        <mxCell id="85v2RrQ9yKnMD5LOBowl-9" value="☰" style="text;html=1;strokeColor=none;fillColor=none;align=center;verticalAlign=middle;whiteSpace=wrap;rounded=0;fontColor=#ffffff;fontSize=24;fontStyle=1" vertex="1" parent="1">
          <mxGeometry x="1180" y="160" width="30" height="40" as="geometry" />
        </mxCell>
        <mxCell id="85v2RrQ9yKnMD5LOBowl-10" value="&lt;b&gt;KARTELDEGIA&lt;/b&gt;" style="text;html=1;strokeColor=none;fillColor=none;align=left;verticalAlign=middle;whiteSpace=wrap;rounded=0;fontSize=28;fontStyle=1" vertex="1" parent="1">
          <mxGeometry x="420" y="230" width="300" height="40" as="geometry" />
        </mxCell>
        <mxCell id="85v2RrQ9yKnMD5LOBowl-11" value="AUKERATU EGUNA" style="whiteSpace=wrap;html=1;fillColor=#e6e6e6;strokeColor=#999999;fontColor=#333333;fontSize=16;" vertex="1" parent="1">
          <mxGeometry x="420" y="280" width="810" height="50" as="geometry" />
        </mxCell>
        <mxCell id="85v2RrQ9yKnMD5LOBowl-12" value="LARUNBATA" style="whiteSpace=wrap;html=1;fillColor=#ff0000;fontColor=#ffffff;strokeColor=#990000;rounded=1;fontStyle=1;cursor=pointer;" vertex="1" parent="1">
          <mxGeometry x="430" y="290" width="90" height="30" as="geometry" />
        </mxCell>
        <mxCell id="85v2RrQ9yKnMD5LOBowl-13" value="IGANDEA" style="whiteSpace=wrap;html=1;fillColor=#cccccc;strokeColor=#999999;rounded=1;cursor=pointer;" vertex="1" parent="1">
          <mxGeometry x="530" y="290" width="90" height="30" as="geometry" />
        </mxCell>
        <mxCell id="85v2RrQ9yKnMD5LOBowl-14" value="&lt;b&gt;EMAITZAK: Gaurko 12 film&amp;nbsp;&lt;/b&gt;" style="text;html=1;strokeColor=none;fillColor=none;align=left;verticalAlign=middle;whiteSpace=wrap;rounded=0;fontSize=16;" vertex="1" parent="1">
          <mxGeometry x="710" y="350" width="230" height="30" as="geometry" />
        </mxCell>
        <mxCell id="85v2RrQ9yKnMD5LOBowl-15" value="" style="whiteSpace=wrap;html=1;fillColor=#ffffff;strokeColor=#999999;" vertex="1" parent="1">
          <mxGeometry x="560" y="400" width="610" height="130" as="geometry" />
        </mxCell>
        <mxCell id="85v2RrQ9yKnMD5LOBowl-16" value="" style="whiteSpace=wrap;html=1;fillColor=#cccccc;strokeColor=#999999;" vertex="1" parent="1">
          <mxGeometry x="570" y="410" width="80" height="110" as="geometry" />
        </mxCell>
        <mxCell id="85v2RrQ9yKnMD5LOBowl-17" value="FILM IZENBURUA LUZEA" style="text;html=1;strokeColor=none;fillColor=none;align=left;verticalAlign=top;whiteSpace=wrap;rounded=0;fontSize=18;fontStyle=1" vertex="1" parent="1">
          <mxGeometry x="660" y="410" width="400" height="30" as="geometry" />
        </mxCell>
        <mxCell id="85v2RrQ9yKnMD5LOBowl-18" value="Sinopsiaren laburpena. Iraupena: 120m | Adina: +12" style="text;html=1;strokeColor=none;fillColor=none;align=left;verticalAlign=top;whiteSpace=wrap;rounded=0;fontSize=12;" vertex="1" parent="1">
          <mxGeometry x="660" y="440" width="400" height="30" as="geometry" />
        </mxCell>
        <mxCell id="85v2RrQ9yKnMD5LOBowl-19" value="16:00&amp;nbsp; - Erosi" style="whiteSpace=wrap;html=1;fillColor=#ff0000;fontColor=#ffffff;strokeColor=#990000;rounded=1;fontSize=10;cursor=pointer;" vertex="1" parent="1">
          <mxGeometry x="660" y="480" width="120" height="30" as="geometry" />
        </mxCell>
        <mxCell id="85v2RrQ9yKnMD5LOBowl-20" value="18:30&amp;nbsp; - Erosi" style="whiteSpace=wrap;html=1;fillColor=#ff0000;fontColor=#ffffff;strokeColor=#990000;rounded=1;fontSize=10;cursor=pointer;" vertex="1" parent="1">
          <mxGeometry x="790" y="480" width="120" height="30" as="geometry" />
        </mxCell>
        <mxCell id="85v2RrQ9yKnMD5LOBowl-21" value="21:00 - Erosi" style="whiteSpace=wrap;html=1;fillColor=#ff0000;fontColor=#ffffff;strokeColor=#990000;rounded=1;fontSize=10;cursor=pointer;" vertex="1" parent="1">
          <mxGeometry x="920" y="480" width="120" height="30" as="geometry" />
        </mxCell>
        <mxCell id="85v2RrQ9yKnMD5LOBowl-22" value="" style="whiteSpace=wrap;html=1;fillColor=#ffffff;strokeColor=#999999;" vertex="1" parent="1">
          <mxGeometry x="560" y="570" width="610" height="130" as="geometry" />
        </mxCell>
        <mxCell id="85v2RrQ9yKnMD5LOBowl-23" value="" style="whiteSpace=wrap;html=1;fillColor=#cccccc;strokeColor=#999999;" vertex="1" parent="1">
          <mxGeometry x="570" y="580" width="80" height="110" as="geometry" />
        </mxCell>
        <mxCell id="85v2RrQ9yKnMD5LOBowl-24" value="Beste Film Baten Izenburua" style="text;html=1;strokeColor=none;fillColor=none;align=left;verticalAlign=top;whiteSpace=wrap;rounded=0;fontSize=18;fontStyle=1" vertex="1" parent="1">
          <mxGeometry x="660" y="580" width="400" height="30" as="geometry" />
        </mxCell>
        <mxCell id="85v2RrQ9yKnMD5LOBowl-25" value="Drama | 110m | Adina: Guztientzat" style="text;html=1;strokeColor=none;fillColor=none;align=left;verticalAlign=top;whiteSpace=wrap;rounded=0;fontSize=12;" vertex="1" parent="1">
          <mxGeometry x="660" y="610" width="400" height="30" as="geometry" />
        </mxCell>
        <mxCell id="85v2RrQ9yKnMD5LOBowl-26" value="17:00&amp;nbsp; - Erosi" style="whiteSpace=wrap;html=1;fillColor=#ff0000;fontColor=#ffffff;strokeColor=#990000;rounded=1;fontSize=10;cursor=pointer;" vertex="1" parent="1">
          <mxGeometry x="660" y="650" width="120" height="30" as="geometry" />
        </mxCell>
        <mxCell id="85v2RrQ9yKnMD5LOBowl-27" value="19:30&amp;nbsp; - Erosi" style="whiteSpace=wrap;html=1;fillColor=#ff0000;fontColor=#ffffff;strokeColor=#990000;rounded=1;fontSize=10;cursor=pointer;" vertex="1" parent="1">
          <mxGeometry x="790" y="650" width="120" height="30" as="geometry" />
        </mxCell>
        <mxCell id="85v2RrQ9yKnMD5LOBowl-28" value="KARGATU GEHIAGO" style="whiteSpace=wrap;html=1;fillColor=#cccccc;fontColor=#333333;strokeColor=#999999;rounded=1;fontStyle=1;cursor=pointer;" vertex="1" parent="1">
          <mxGeometry x="725" y="909" width="200" height="30" as="geometry" />
        </mxCell>
        <mxCell id="85v2RrQ9yKnMD5LOBowl-29" value="" style="whiteSpace=wrap;html=1;fillColor=#1a1a1a;strokeColor=none;fontColor=#ffffff;fontSize=10;" vertex="1" parent="1">
          <mxGeometry x="400" y="1020" width="850" height="110" as="geometry" />
        </mxCell>
        <mxCell id="85v2RrQ9yKnMD5LOBowl-30" value="&lt;u&gt;LOGO eta Testua&lt;/u&gt;" style="text;html=1;strokeColor=none;fillColor=none;align=left;verticalAlign=middle;whiteSpace=wrap;rounded=0;fontColor=#ffffff;fontSize=14;fontStyle=1" vertex="1" parent="1">
          <mxGeometry x="420" y="1030" width="150" height="20" as="geometry" />
        </mxCell>
        <mxCell id="85v2RrQ9yKnMD5LOBowl-31" value="&lt;u&gt;Nabigazioa&lt;/u&gt;&lt;br&gt;Orrialde Nagusia | Karteldegia | Informazioa | Balorazioak | Saskia" style="text;html=1;strokeColor=none;fillColor=none;align=left;verticalAlign=top;whiteSpace=wrap;rounded=0;fontColor=#cccccc;fontSize=12;" vertex="1" parent="1">
          <mxGeometry x="590" y="1030" width="400" height="50" as="geometry" />
        </mxCell>
        <mxCell id="85v2RrQ9yKnMD5LOBowl-32" value="&lt;u&gt;Legala Partea&lt;/u&gt;&lt;br&gt;Lege-Oharra | Pribatutasun-politika" style="text;html=1;strokeColor=none;fillColor=none;align=left;verticalAlign=top;whiteSpace=wrap;rounded=0;fontColor=#cccccc;fontSize=12;" vertex="1" parent="1">
          <mxGeometry x="1000" y="1030" width="230" height="50" as="geometry" />
        </mxCell>
        <mxCell id="85v2RrQ9yKnMD5LOBowl-33" value="© 2025 ZINEMA.EUS" style="text;html=1;strokeColor=none;fillColor=none;align=center;verticalAlign=middle;whiteSpace=wrap;rounded=0;fontColor=#666666;fontSize=10;" vertex="1" parent="1">
          <mxGeometry x="700" y="1090" width="150" height="20" as="geometry" />
        </mxCell>
        <mxCell id="85v2RrQ9yKnMD5LOBowl-34" value="" style="whiteSpace=wrap;html=1;fillColor=#ffffff;strokeColor=#999999;" vertex="1" parent="1">
          <mxGeometry x="560" y="720" width="610" height="130" as="geometry" />
        </mxCell>
        <mxCell id="85v2RrQ9yKnMD5LOBowl-35" value="" style="whiteSpace=wrap;html=1;fillColor=#cccccc;strokeColor=#999999;" vertex="1" parent="1">
          <mxGeometry x="570" y="730" width="80" height="110" as="geometry" />
        </mxCell>
        <mxCell id="85v2RrQ9yKnMD5LOBowl-36" value="Beste Film Baten Izenburua" style="text;html=1;strokeColor=none;fillColor=none;align=left;verticalAlign=top;whiteSpace=wrap;rounded=0;fontSize=18;fontStyle=1" vertex="1" parent="1">
          <mxGeometry x="660" y="730" width="400" height="30" as="geometry" />
        </mxCell>
        <mxCell id="85v2RrQ9yKnMD5LOBowl-37" value="Drama | 110m | Adina: Guztientzat" style="text;html=1;strokeColor=none;fillColor=none;align=left;verticalAlign=top;whiteSpace=wrap;rounded=0;fontSize=12;" vertex="1" parent="1">
          <mxGeometry x="660" y="760" width="400" height="30" as="geometry" />
        </mxCell>
        <mxCell id="85v2RrQ9yKnMD5LOBowl-38" value="17:00&amp;nbsp; - Erosi" style="whiteSpace=wrap;html=1;fillColor=#ff0000;fontColor=#ffffff;strokeColor=#990000;rounded=1;fontSize=10;cursor=pointer;" vertex="1" parent="1">
          <mxGeometry x="660" y="800" width="120" height="30" as="geometry" />
        </mxCell>
        <mxCell id="85v2RrQ9yKnMD5LOBowl-39" value="19:30&amp;nbsp; - Erosi" style="whiteSpace=wrap;html=1;fillColor=#ff0000;fontColor=#ffffff;strokeColor=#990000;rounded=1;fontSize=10;cursor=pointer;" vertex="1" parent="1">
          <mxGeometry x="790" y="800" width="120" height="30" as="geometry" />
        </mxCell>
      </root>
    </mxGraphModel>
  </diagram>
  <diagram name="Página-3" id="9tMYKc5UjggB9ZCF1Vj8">
    <mxGraphModel dx="1778" dy="2487" grid="1" gridSize="10" guides="1" tooltips="1" connect="1" arrows="1" fold="1" page="1" pageScale="1" pageWidth="827" pageHeight="1169" math="0" shadow="0" adaptiveColors="none">
      <root>
        <mxCell id="0" />
        <mxCell id="1" parent="0" />
        <mxCell id="bzCRH3hQdJbqIiwIocQ6-1" value="" style="whiteSpace=wrap;html=1;aspect=fixed;fillColor=#f5f5f5;strokeColor=#666666;" vertex="1" parent="1">
          <mxGeometry x="1230" y="-180" width="850" height="980" as="geometry" />
        </mxCell>
        <mxCell id="bzCRH3hQdJbqIiwIocQ6-2" value="" style="whiteSpace=wrap;html=1;fillColor=#1a1a1a;fontColor=#ffffff;fontSize=10;" vertex="1" parent="1">
          <mxGeometry x="1230" y="-180" width="850" height="60" as="geometry" />
        </mxCell>
        <mxCell id="bzCRH3hQdJbqIiwIocQ6-3" value="LOGO &lt;br&gt;&lt;i&gt;Testua&lt;/i&gt;" style="text;html=1;strokeColor=none;fillColor=none;align=center;verticalAlign=middle;whiteSpace=wrap;rounded=0;fontColor=#ff0000;fontSize=18;fontStyle=1" vertex="1" parent="1">
          <mxGeometry x="1250" y="-170" width="120" height="40" as="geometry" />
        </mxCell>
        <mxCell id="bzCRH3hQdJbqIiwIocQ6-4" value="&lt;b&gt;Orrialde Nagusia&lt;/b&gt;" style="text;html=1;strokeColor=none;fillColor=none;align=center;verticalAlign=middle;whiteSpace=wrap;rounded=0;fontColor=#ffffff;fontSize=12;" vertex="1" parent="1">
          <mxGeometry x="1510" y="-160" width="110" height="20" as="geometry" />
        </mxCell>
        <mxCell id="bzCRH3hQdJbqIiwIocQ6-5" value="&lt;b&gt;Kartelera&lt;/b&gt;" style="text;html=1;strokeColor=none;fillColor=none;align=center;verticalAlign=middle;whiteSpace=wrap;rounded=0;fontColor=#ffffff;fontSize=12;" vertex="1" parent="1">
          <mxGeometry x="1630" y="-160" width="80" height="20" as="geometry" />
        </mxCell>
        <mxCell id="bzCRH3hQdJbqIiwIocQ6-6" value="&lt;b&gt;Informazioa&lt;/b&gt;" style="text;html=1;strokeColor=none;fillColor=none;align=center;verticalAlign=middle;whiteSpace=wrap;rounded=0;fontColor=#ff0000;fontSize=12;" vertex="1" parent="1">
          <mxGeometry x="1720" y="-160" width="80" height="20" as="geometry" />
        </mxCell>
        <mxCell id="bzCRH3hQdJbqIiwIocQ6-7" value="&lt;b&gt;Balorazioak&lt;/b&gt;" style="text;html=1;strokeColor=none;fillColor=none;align=center;verticalAlign=middle;whiteSpace=wrap;rounded=0;fontColor=#ffffff;fontSize=12;" vertex="1" parent="1">
          <mxGeometry x="1810" y="-160" width="80" height="20" as="geometry" />
        </mxCell>
        <mxCell id="bzCRH3hQdJbqIiwIocQ6-8" value="&lt;b&gt;Saskia&lt;/b&gt;" style="text;html=1;strokeColor=none;fillColor=none;align=center;verticalAlign=middle;whiteSpace=wrap;rounded=0;fontColor=#ffffff;fontSize=12;" vertex="1" parent="1">
          <mxGeometry x="1900" y="-160" width="60" height="20" as="geometry" />
        </mxCell>
        <mxCell id="bzCRH3hQdJbqIiwIocQ6-9" value="☰" style="text;html=1;strokeColor=none;fillColor=none;align=center;verticalAlign=middle;whiteSpace=wrap;rounded=0;fontColor=#ffffff;fontSize=24;fontStyle=1" vertex="1" parent="1">
          <mxGeometry x="2010" y="-170" width="30" height="40" as="geometry" />
        </mxCell>
        <mxCell id="bzCRH3hQdJbqIiwIocQ6-10" value="&lt;b&gt;INFORMAZIOA ETA KONTAKTUA&lt;/b&gt;" style="text;html=1;strokeColor=none;fillColor=none;align=left;verticalAlign=middle;whiteSpace=wrap;rounded=0;fontSize=28;fontStyle=1" vertex="1" parent="1">
          <mxGeometry x="1250" y="-100" width="500" height="40" as="geometry" />
        </mxCell>
        <mxCell id="bzCRH3hQdJbqIiwIocQ6-11" value="&lt;b&gt;1. NOR GARA?&lt;/b&gt; (Guri Buruz)" style="text;html=1;strokeColor=none;fillColor=none;align=left;verticalAlign=middle;whiteSpace=wrap;rounded=0;fontSize=20;fontStyle=1" vertex="1" parent="1">
          <mxGeometry x="1250" y="-30" width="200" height="30" as="geometry" />
        </mxCell>
        <mxCell id="bzCRH3hQdJbqIiwIocQ6-12" value="Testua: Zinema proiektuaren misioa, bisioa eta balioak azaldu." style="whiteSpace=wrap;html=1;fillColor=#ffffff;strokeColor=#999999;fontColor=#333333;align=left;verticalAlign=top;fontSize=14;" vertex="1" parent="1">
          <mxGeometry x="1250" y="10" width="810" height="100" as="geometry" />
        </mxCell>
        <mxCell id="bzCRH3hQdJbqIiwIocQ6-13" value="&lt;b&gt;2. KONTAKTUA&lt;/b&gt; (Jarri Gurekin Harremanetan)" style="text;html=1;strokeColor=none;fillColor=none;align=left;verticalAlign=middle;whiteSpace=wrap;rounded=0;fontSize=20;fontStyle=1" vertex="1" parent="1">
          <mxGeometry x="1250" y="130" width="400" height="30" as="geometry" />
        </mxCell>
        <mxCell id="bzCRH3hQdJbqIiwIocQ6-14" value="&lt;b&gt;HARREMANETARAKO DATUAK&lt;/b&gt;&lt;br&gt;&lt;br&gt;&lt;b&gt;Telefonoa (Informazio Orokorra):&lt;/b&gt; 94 123 45 67&lt;br&gt;&lt;b&gt;Email (Ticket Laguntza):&lt;/b&gt; laguntza@zinema.eus&lt;br&gt;&lt;br&gt;&lt;b&gt;Ordutegia:&lt;/b&gt; 10:00 - 22:00" style="whiteSpace=wrap;html=1;fillColor=#e6e6e6;strokeColor=#999999;fontColor=#333333;align=left;verticalAlign=top;fontSize=14;" vertex="1" parent="1">
          <mxGeometry x="1250" y="180" width="810" height="150" as="geometry" />
        </mxCell>
        <mxCell id="bzCRH3hQdJbqIiwIocQ6-15" value="&lt;b&gt;3. OHIKO GALDERAK (FAQ)&lt;/b&gt;" style="text;html=1;strokeColor=none;fillColor=none;align=left;verticalAlign=middle;whiteSpace=wrap;rounded=0;fontSize=20;fontStyle=1" vertex="1" parent="1">
          <mxGeometry x="1250" y="360" width="400" height="30" as="geometry" />
        </mxCell>
        <mxCell id="bzCRH3hQdJbqIiwIocQ6-16" value="&lt;b&gt;Galdera 1:&lt;/b&gt;&amp;nbsp;" style="whiteSpace=wrap;html=1;fillColor=#ffffff;strokeColor=#999999;fontColor=#333333;align=left;verticalAlign=middle;fontSize=14;" vertex="1" parent="1">
          <mxGeometry x="1250" y="400" width="810" height="40" as="geometry" />
        </mxCell>
        <mxCell id="bzCRH3hQdJbqIiwIocQ6-17" value="&lt;b&gt;Galdera 2:&lt;/b&gt;" style="whiteSpace=wrap;html=1;fillColor=#ffffff;strokeColor=#999999;fontColor=#333333;align=left;verticalAlign=middle;fontSize=14;" vertex="1" parent="1">
          <mxGeometry x="1250" y="450" width="810" height="40" as="geometry" />
        </mxCell>
        <mxCell id="bzCRH3hQdJbqIiwIocQ6-18" value="&lt;b&gt;Galdera 3:&lt;/b&gt;" style="whiteSpace=wrap;html=1;fillColor=#ffffff;strokeColor=#999999;fontColor=#333333;align=left;verticalAlign=middle;fontSize=14;" vertex="1" parent="1">
          <mxGeometry x="1250" y="500" width="810" height="40" as="geometry" />
        </mxCell>
        <mxCell id="bzCRH3hQdJbqIiwIocQ6-19" value="" style="whiteSpace=wrap;html=1;fillColor=#1a1a1a;strokeColor=none;fontColor=#ffffff;fontSize=10;" vertex="1" parent="1">
          <mxGeometry x="1230" y="690" width="850" height="110" as="geometry" />
        </mxCell>
        <mxCell id="bzCRH3hQdJbqIiwIocQ6-20" value="&lt;u&gt;LOGO eta Testua&lt;/u&gt;" style="text;html=1;strokeColor=none;fillColor=none;align=left;verticalAlign=middle;whiteSpace=wrap;rounded=0;fontColor=#ffffff;fontSize=14;fontStyle=1" vertex="1" parent="1">
          <mxGeometry x="1250" y="700" width="150" height="20" as="geometry" />
        </mxCell>
        <mxCell id="bzCRH3hQdJbqIiwIocQ6-21" value="&lt;u&gt;Nabigazioa&lt;/u&gt;&lt;br&gt;Orrialde Nagusia | Karteldegia | Informazioa | Balorazioak | Saskia" style="text;html=1;strokeColor=none;fillColor=none;align=left;verticalAlign=top;whiteSpace=wrap;rounded=0;fontColor=#cccccc;fontSize=12;" vertex="1" parent="1">
          <mxGeometry x="1420" y="700" width="400" height="50" as="geometry" />
        </mxCell>
        <mxCell id="bzCRH3hQdJbqIiwIocQ6-22" value="&lt;u&gt;Legala Partea&lt;/u&gt;&lt;br&gt;Lege-Oharra | Pribatutasun-politika" style="text;html=1;strokeColor=none;fillColor=none;align=left;verticalAlign=top;whiteSpace=wrap;rounded=0;fontColor=#cccccc;fontSize=12;" vertex="1" parent="1">
          <mxGeometry x="1830" y="700" width="230" height="50" as="geometry" />
        </mxCell>
        <mxCell id="bzCRH3hQdJbqIiwIocQ6-23" value="© 2025 ZINEMA.EUS" style="text;html=1;strokeColor=none;fillColor=none;align=center;verticalAlign=middle;whiteSpace=wrap;rounded=0;fontColor=#666666;fontSize=10;" vertex="1" parent="1">
          <mxGeometry x="1530" y="760" width="150" height="20" as="geometry" />
        </mxCell>
      </root>
    </mxGraphModel>
  </diagram>
  <diagram name="Página-4" id="5uA3A59H8ByYNcvEebZf">
    <mxGraphModel dx="1389" dy="703" grid="1" gridSize="10" guides="1" tooltips="1" connect="1" arrows="1" fold="1" page="1" pageScale="1" pageWidth="827" pageHeight="1169" math="0" shadow="0" adaptiveColors="none">
      <root>
        <mxCell id="0" />
        <mxCell id="1" parent="0" />
        <mxCell id="QeaNcP_HttxWZgNfVoSD-37" value="" style="whiteSpace=wrap;html=1;aspect=fixed;fillColor=#f5f5f5;strokeColor=#666666;" vertex="1" parent="1">
          <mxGeometry x="400" y="110" width="850" height="980" as="geometry" />
        </mxCell>
        <mxCell id="QeaNcP_HttxWZgNfVoSD-38" value="" style="whiteSpace=wrap;html=1;fillColor=#1a1a1a;fontColor=#ffffff;fontSize=10;" vertex="1" parent="1">
          <mxGeometry x="400" y="110" width="850" height="60" as="geometry" />
        </mxCell>
        <mxCell id="QeaNcP_HttxWZgNfVoSD-39" value="LOGO &lt;br&gt;&lt;i&gt;Testua&lt;/i&gt;" style="text;html=1;strokeColor=none;fillColor=none;align=center;verticalAlign=middle;whiteSpace=wrap;rounded=0;fontColor=#ff0000;fontSize=18;fontStyle=1" vertex="1" parent="1">
          <mxGeometry x="420" y="120" width="120" height="40" as="geometry" />
        </mxCell>
        <mxCell id="QeaNcP_HttxWZgNfVoSD-40" value="&lt;b&gt;Orrialde Nagusia&lt;/b&gt;" style="text;html=1;strokeColor=none;fillColor=none;align=center;verticalAlign=middle;whiteSpace=wrap;rounded=0;fontColor=#ffffff;fontSize=12;" vertex="1" parent="1">
          <mxGeometry x="680" y="130" width="110" height="20" as="geometry" />
        </mxCell>
        <mxCell id="QeaNcP_HttxWZgNfVoSD-41" value="&lt;b&gt;Kartelera&lt;/b&gt;" style="text;html=1;strokeColor=none;fillColor=none;align=center;verticalAlign=middle;whiteSpace=wrap;rounded=0;fontColor=#ffffff;fontSize=12;" vertex="1" parent="1">
          <mxGeometry x="800" y="130" width="80" height="20" as="geometry" />
        </mxCell>
        <mxCell id="QeaNcP_HttxWZgNfVoSD-42" value="&lt;b&gt;Informazioa&lt;/b&gt;" style="text;html=1;strokeColor=none;fillColor=none;align=center;verticalAlign=middle;whiteSpace=wrap;rounded=0;fontColor=#ffffff;fontSize=12;" vertex="1" parent="1">
          <mxGeometry x="890" y="130" width="80" height="20" as="geometry" />
        </mxCell>
        <mxCell id="QeaNcP_HttxWZgNfVoSD-43" value="&lt;b&gt;Balorazioak&lt;/b&gt;" style="text;html=1;strokeColor=none;fillColor=none;align=center;verticalAlign=middle;whiteSpace=wrap;rounded=0;fontColor=#ff0000;fontSize=12;" vertex="1" parent="1">
          <mxGeometry x="980" y="130" width="80" height="20" as="geometry" />
        </mxCell>
        <mxCell id="QeaNcP_HttxWZgNfVoSD-44" value="&lt;b&gt;Saskia&lt;/b&gt;" style="text;html=1;strokeColor=none;fillColor=none;align=center;verticalAlign=middle;whiteSpace=wrap;rounded=0;fontColor=#ffffff;fontSize=12;" vertex="1" parent="1">
          <mxGeometry x="1070" y="130" width="60" height="20" as="geometry" />
        </mxCell>
        <mxCell id="QeaNcP_HttxWZgNfVoSD-45" value="☰" style="text;html=1;strokeColor=none;fillColor=none;align=center;verticalAlign=middle;whiteSpace=wrap;rounded=0;fontColor=#ffffff;fontSize=24;fontStyle=1" vertex="1" parent="1">
          <mxGeometry x="1180" y="120" width="30" height="40" as="geometry" />
        </mxCell>
        <mxCell id="QeaNcP_HttxWZgNfVoSD-46" value="&lt;b&gt;ZINEMAREN ETA ZERBITZUAREN BALORAZIOAK&lt;/b&gt;" style="text;html=1;strokeColor=none;fillColor=none;align=left;verticalAlign=middle;whiteSpace=wrap;rounded=0;fontSize=28;fontStyle=1" vertex="1" parent="1">
          <mxGeometry x="420" y="190" width="782" height="40" as="geometry" />
        </mxCell>
        <mxCell id="QeaNcP_HttxWZgNfVoSD-47" value="" style="whiteSpace=wrap;html=1;fillColor=#e6e6e6;strokeColor=#999999;" vertex="1" parent="1">
          <mxGeometry x="423" y="240" width="810" height="130" as="geometry" />
        </mxCell>
        <mxCell id="QeaNcP_HttxWZgNfVoSD-48" value="&lt;b&gt;Batez besteko Puntuazioa:&lt;/b&gt;" style="text;html=1;strokeColor=none;fillColor=none;align=left;verticalAlign=top;whiteSpace=wrap;rounded=0;fontSize=18;fontStyle=1" vertex="1" parent="1">
          <mxGeometry x="430" y="250" width="250" height="30" as="geometry" />
        </mxCell>
        <mxCell id="QeaNcP_HttxWZgNfVoSD-49" value="&lt;b&gt;4.5 / 5.0&lt;/b&gt;" style="text;html=1;strokeColor=none;fillColor=none;align=left;verticalAlign=middle;whiteSpace=wrap;rounded=0;fontSize=36;fontColor=#ff0000;fontStyle=1" vertex="1" parent="1">
          <mxGeometry x="420" y="310" width="182" height="50" as="geometry" />
        </mxCell>
        <mxCell id="QeaNcP_HttxWZgNfVoSD-50" value="★ ★ ★ ★ ☆" style="text;html=1;strokeColor=none;fillColor=none;align=left;verticalAlign=middle;whiteSpace=wrap;rounded=0;fontSize=36;fontColor=#ffcc00;fontStyle=1" vertex="1" parent="1">
          <mxGeometry x="586" y="310" width="250" height="50" as="geometry" />
        </mxCell>
        <mxCell id="QeaNcP_HttxWZgNfVoSD-51" value="&lt;b&gt;Balorazioaren Banaketa:&lt;/b&gt;&lt;br&gt;5 Izar: 70% | 4 Izar: 20% | 3 Izar: 5% | 2 Izar: 3% | 1 Izar: 2%" style="text;html=1;strokeColor=none;fillColor=none;align=left;verticalAlign=top;whiteSpace=wrap;rounded=0;fontSize=12;" vertex="1" parent="1">
          <mxGeometry x="900" y="250" width="300" height="40" as="geometry" />
        </mxCell>
        <mxCell id="QeaNcP_HttxWZgNfVoSD-52" value="&lt;b&gt;Gai nagusiak (Etiketak):&lt;/b&gt; Garbitasuna, Laguntza, Erosotasuna, Jatekoa" style="text;html=1;strokeColor=none;fillColor=none;align=left;verticalAlign=top;whiteSpace=wrap;rounded=0;fontSize=12;" vertex="1" parent="1">
          <mxGeometry x="900" y="300" width="300" height="40" as="geometry" />
        </mxCell>
        <mxCell id="QeaNcP_HttxWZgNfVoSD-53" value="&lt;b&gt;Azken Iruzkinak (Zerbitzuari Buruzkoak)&lt;/b&gt;" style="text;html=1;strokeColor=none;fillColor=none;align=left;verticalAlign=middle;whiteSpace=wrap;rounded=0;fontSize=20;fontStyle=1" vertex="1" parent="1">
          <mxGeometry x="420" y="400" width="500" height="30" as="geometry" />
        </mxCell>
        <mxCell id="QeaNcP_HttxWZgNfVoSD-54" value="" style="whiteSpace=wrap;html=1;fillColor=#ffffff;strokeColor=#999999;" vertex="1" parent="1">
          <mxGeometry x="420" y="440" width="810" height="100" as="geometry" />
        </mxCell>
        <mxCell id="QeaNcP_HttxWZgNfVoSD-55" value="&lt;b&gt;Gaia:&lt;/b&gt; Garbitasuna eta Salas Erosotasuna" style="text;html=1;strokeColor=none;fillColor=none;align=left;verticalAlign=top;whiteSpace=wrap;rounded=0;fontSize=14;fontStyle=1" vertex="1" parent="1">
          <mxGeometry x="430" y="450" width="400" height="20" as="geometry" />
        </mxCell>
        <mxCell id="QeaNcP_HttxWZgNfVoSD-56" value="Aretoak oso garbi zeuden eta aulkiak oso erosoak ziren. Esperientzia oso ona. &lt;i&gt;(Aipamen positiboa)&lt;/i&gt;" style="text;html=1;strokeColor=none;fillColor=none;align=left;verticalAlign=top;whiteSpace=wrap;rounded=0;fontSize=12;" vertex="1" parent="1">
          <mxGeometry x="430" y="480" width="580" height="40" as="geometry" />
        </mxCell>
        <mxCell id="QeaNcP_HttxWZgNfVoSD-57" value="&lt;b&gt;Puntuazioa:&lt;/b&gt; 5 / 5 &lt;span style=&quot;color:#FFCC00;&quot;&gt;★ ★ ★ ★ ★&lt;/span&gt;" style="text;html=1;strokeColor=none;fillColor=none;align=right;verticalAlign=top;whiteSpace=wrap;rounded=0;fontSize=14;" vertex="1" parent="1">
          <mxGeometry x="1020" y="450" width="200" height="20" as="geometry" />
        </mxCell>
        <mxCell id="QeaNcP_HttxWZgNfVoSD-58" value="&lt;b&gt;Erabiltzailea:&lt;/b&gt; Jone P. | 2025/09/30" style="text;html=1;strokeColor=none;fillColor=none;align=right;verticalAlign=top;whiteSpace=wrap;rounded=0;fontSize=12;" vertex="1" parent="1">
          <mxGeometry x="1020" y="520" width="200" height="20" as="geometry" />
        </mxCell>
        <mxCell id="QeaNcP_HttxWZgNfVoSD-59" value="" style="whiteSpace=wrap;html=1;fillColor=#ffffff;strokeColor=#999999;" vertex="1" parent="1">
          <mxGeometry x="420" y="550" width="810" height="100" as="geometry" />
        </mxCell>
        <mxCell id="QeaNcP_HttxWZgNfVoSD-60" value="&lt;b&gt;Gaia:&lt;/b&gt; Arreta eta Laguntza Teknikoa" style="text;html=1;strokeColor=none;fillColor=none;align=left;verticalAlign=top;whiteSpace=wrap;rounded=0;fontSize=14;fontStyle=1" vertex="1" parent="1">
          <mxGeometry x="430" y="560" width="400" height="20" as="geometry" />
        </mxCell>
        <mxCell id="QeaNcP_HttxWZgNfVoSD-61" value="Ticket arazo bat izan nuen eta pertsonala oso azkar eta jatorra izan zen laguntzeko. Primeran konpondu zuten. &lt;i&gt;(Aipamen positiboa)&lt;/i&gt;" style="text;html=1;strokeColor=none;fillColor=none;align=left;verticalAlign=top;whiteSpace=wrap;rounded=0;fontSize=12;" vertex="1" parent="1">
          <mxGeometry x="430" y="590" width="580" height="40" as="geometry" />
        </mxCell>
        <mxCell id="QeaNcP_HttxWZgNfVoSD-62" value="&lt;b&gt;Puntuazioa:&lt;/b&gt; 4 / 5 &lt;span style=&quot;color:#FFCC00;&quot;&gt;★ ★ ★ ★ ☆&lt;/span&gt;" style="text;html=1;strokeColor=none;fillColor=none;align=right;verticalAlign=top;whiteSpace=wrap;rounded=0;fontSize=14;" vertex="1" parent="1">
          <mxGeometry x="1020" y="560" width="200" height="20" as="geometry" />
        </mxCell>
        <mxCell id="QeaNcP_HttxWZgNfVoSD-63" value="&lt;b&gt;Erabiltzailea:&lt;/b&gt; Peio A. | 2025/09/29" style="text;html=1;strokeColor=none;fillColor=none;align=right;verticalAlign=top;whiteSpace=wrap;rounded=0;fontSize=12;" vertex="1" parent="1">
          <mxGeometry x="1020" y="630" width="200" height="20" as="geometry" />
        </mxCell>
        <mxCell id="QeaNcP_HttxWZgNfVoSD-64" value="&lt;b&gt;BALORATU GURE ZERBITZUA&lt;/b&gt;" style="text;html=1;strokeColor=none;fillColor=none;align=left;verticalAlign=middle;whiteSpace=wrap;rounded=0;fontSize=20;fontStyle=1" vertex="1" parent="1">
          <mxGeometry x="420" y="690" width="400" height="30" as="geometry" />
        </mxCell>
        <mxCell id="QeaNcP_HttxWZgNfVoSD-65" value="&lt;b&gt;Gaia Aukeratu:&lt;/b&gt; [Dropdown (Adibidez: Sarreren Erosketa, Arreta, Garbitasuna)]&lt;br&gt;&lt;b&gt;Zure Puntuazioa:&lt;/b&gt; [5 Izar/Slider]&lt;br&gt;&lt;b&gt;Iruzkina:&lt;/b&gt; [Testu Area Handia]&lt;br&gt;&lt;b&gt;Erabiltzailearen Izena:&lt;/b&gt; [Testu Kutxa]" style="whiteSpace=wrap;html=1;fillColor=#e6e6e6;strokeColor=#999999;fontColor=#333333;align=left;verticalAlign=top;fontSize=14;" vertex="1" parent="1">
          <mxGeometry x="420" y="730" width="810" height="150" as="geometry" />
        </mxCell>
        <mxCell id="QeaNcP_HttxWZgNfVoSD-66" value="BIDALI BALORAZIOA" style="whiteSpace=wrap;html=1;fillColor=#ff0000;fontColor=#ffffff;strokeColor=#990000;rounded=1;fontStyle=1;cursor=pointer;" vertex="1" parent="1">
          <mxGeometry x="1040" y="840" width="180" height="30" as="geometry" />
        </mxCell>
        <mxCell id="QeaNcP_HttxWZgNfVoSD-67" value="" style="whiteSpace=wrap;html=1;fillColor=#1a1a1a;strokeColor=none;fontColor=#ffffff;fontSize=10;" vertex="1" parent="1">
          <mxGeometry x="400" y="980" width="850" height="110" as="geometry" />
        </mxCell>
        <mxCell id="QeaNcP_HttxWZgNfVoSD-68" value="&lt;u&gt;LOGO eta Testua&lt;/u&gt;" style="text;html=1;strokeColor=none;fillColor=none;align=left;verticalAlign=middle;whiteSpace=wrap;rounded=0;fontColor=#ffffff;fontSize=14;fontStyle=1" vertex="1" parent="1">
          <mxGeometry x="420" y="990" width="150" height="20" as="geometry" />
        </mxCell>
        <mxCell id="QeaNcP_HttxWZgNfVoSD-69" value="&lt;u&gt;Nabigazioa&lt;/u&gt;&lt;br&gt;Orrialde Nagusia | Karteldegia | Informazioa | Balorazioak | Saskia" style="text;html=1;strokeColor=none;fillColor=none;align=left;verticalAlign=top;whiteSpace=wrap;rounded=0;fontColor=#cccccc;fontSize=12;" vertex="1" parent="1">
          <mxGeometry x="590" y="990" width="400" height="50" as="geometry" />
        </mxCell>
        <mxCell id="QeaNcP_HttxWZgNfVoSD-70" value="&lt;u&gt;Legala Partea&lt;/u&gt;&lt;br&gt;Lege-Oharra | Pribatutasun-politika" style="text;html=1;strokeColor=none;fillColor=none;align=left;verticalAlign=top;whiteSpace=wrap;rounded=0;fontColor=#cccccc;fontSize=12;" vertex="1" parent="1">
          <mxGeometry x="1000" y="990" width="230" height="50" as="geometry" />
        </mxCell>
        <mxCell id="QeaNcP_HttxWZgNfVoSD-71" value="© 2025 ZINEMA.EUS" style="text;html=1;strokeColor=none;fillColor=none;align=center;verticalAlign=middle;whiteSpace=wrap;rounded=0;fontColor=#666666;fontSize=10;" vertex="1" parent="1">
          <mxGeometry x="700" y="1050" width="150" height="20" as="geometry" />
        </mxCell>
        <mxCell id="QeaNcP_HttxWZgNfVoSD-72" style="edgeStyle=orthogonalEdgeStyle;rounded=0;orthogonalLoop=1;jettySize=auto;html=1;exitX=0.75;exitY=0;exitDx=0;exitDy=0;entryX=0.753;entryY=-0.2;entryDx=0;entryDy=0;entryPerimeter=0;" edge="1" parent="1" source="QeaNcP_HttxWZgNfVoSD-49" target="QeaNcP_HttxWZgNfVoSD-49">
          <mxGeometry relative="1" as="geometry" />
        </mxCell>
      </root>
    </mxGraphModel>
  </diagram>
  <diagram name="Página-5" id="hKyGSxgQS1i6s1-KHtl_">
    <mxGraphModel dx="1895" dy="958" grid="1" gridSize="10" guides="1" tooltips="1" connect="1" arrows="1" fold="1" page="1" pageScale="1" pageWidth="827" pageHeight="1169" math="0" shadow="0" adaptiveColors="none">
      <root>
        <mxCell id="0" />
        <mxCell id="1" parent="0" />
        <mxCell id="NHOzWS8w5IpaU0_jdm7j-1" value="" style="whiteSpace=wrap;html=1;aspect=fixed;fillColor=#f5f5f5;strokeColor=#666666;" vertex="1" parent="1">
          <mxGeometry x="440" y="50" width="850" height="980" as="geometry" />
        </mxCell>
        <mxCell id="NHOzWS8w5IpaU0_jdm7j-2" value="" style="whiteSpace=wrap;html=1;fillColor=#1a1a1a;fontColor=#ffffff;fontSize=10;" vertex="1" parent="1">
          <mxGeometry x="440" y="50" width="850" height="60" as="geometry" />
        </mxCell>
        <mxCell id="NHOzWS8w5IpaU0_jdm7j-3" value="LOGO &lt;br&gt;&lt;i&gt;Testua&lt;/i&gt;" style="text;html=1;strokeColor=none;fillColor=none;align=center;verticalAlign=middle;whiteSpace=wrap;rounded=0;fontColor=#ff0000;fontSize=18;fontStyle=1" vertex="1" parent="1">
          <mxGeometry x="460" y="60" width="120" height="40" as="geometry" />
        </mxCell>
        <mxCell id="NHOzWS8w5IpaU0_jdm7j-4" value="&lt;b&gt;Orrialde Nagusia&lt;/b&gt;" style="text;html=1;strokeColor=none;fillColor=none;align=center;verticalAlign=middle;whiteSpace=wrap;rounded=0;fontColor=#ffffff;fontSize=12;" vertex="1" parent="1">
          <mxGeometry x="720" y="70" width="110" height="20" as="geometry" />
        </mxCell>
        <mxCell id="NHOzWS8w5IpaU0_jdm7j-5" value="&lt;b&gt;kartelera&lt;/b&gt;" style="text;html=1;strokeColor=none;fillColor=none;align=center;verticalAlign=middle;whiteSpace=wrap;rounded=0;fontColor=#ffffff;fontSize=12;" vertex="1" parent="1">
          <mxGeometry x="840" y="70" width="80" height="20" as="geometry" />
        </mxCell>
        <mxCell id="NHOzWS8w5IpaU0_jdm7j-6" value="&lt;b&gt;Informazioa&lt;/b&gt;" style="text;html=1;strokeColor=none;fillColor=none;align=center;verticalAlign=middle;whiteSpace=wrap;rounded=0;fontColor=#ffffff;fontSize=12;" vertex="1" parent="1">
          <mxGeometry x="930" y="70" width="80" height="20" as="geometry" />
        </mxCell>
        <mxCell id="NHOzWS8w5IpaU0_jdm7j-7" value="&lt;b&gt;Balorazioak&lt;/b&gt;" style="text;html=1;strokeColor=none;fillColor=none;align=center;verticalAlign=middle;whiteSpace=wrap;rounded=0;fontColor=#ffffff;fontSize=12;" vertex="1" parent="1">
          <mxGeometry x="1020" y="70" width="80" height="20" as="geometry" />
        </mxCell>
        <mxCell id="NHOzWS8w5IpaU0_jdm7j-8" value="&lt;b&gt;Saskia&lt;/b&gt;" style="text;html=1;strokeColor=none;fillColor=none;align=center;verticalAlign=middle;whiteSpace=wrap;rounded=0;fontColor=#ff0000;fontSize=12;" vertex="1" parent="1">
          <mxGeometry x="1110" y="70" width="60" height="20" as="geometry" />
        </mxCell>
        <mxCell id="NHOzWS8w5IpaU0_jdm7j-9" value="☰" style="text;html=1;strokeColor=none;fillColor=none;align=center;verticalAlign=middle;whiteSpace=wrap;rounded=0;fontColor=#ffffff;fontSize=24;fontStyle=1" vertex="1" parent="1">
          <mxGeometry x="1220" y="60" width="30" height="40" as="geometry" />
        </mxCell>
        <mxCell id="NHOzWS8w5IpaU0_jdm7j-10" value="&lt;b&gt;SASKIA (EROSKETA LABURPENA)&lt;/b&gt;" style="text;html=1;strokeColor=none;fillColor=none;align=left;verticalAlign=middle;whiteSpace=wrap;rounded=0;fontSize=28;fontStyle=1" vertex="1" parent="1">
          <mxGeometry x="460" y="130" width="600" height="40" as="geometry" />
        </mxCell>
        <mxCell id="NHOzWS8w5IpaU0_jdm7j-11" value="&lt;b&gt;Produktua&lt;/b&gt;" style="whiteSpace=wrap;html=1;fillColor=#cccccc;strokeColor=#999999;fontColor=#333333;fontSize=14;fontStyle=1" vertex="1" parent="1">
          <mxGeometry x="460" y="190" width="550" height="40" as="geometry" />
        </mxCell>
        <mxCell id="NHOzWS8w5IpaU0_jdm7j-12" value="&lt;b&gt;Unitatea&lt;/b&gt;" style="whiteSpace=wrap;html=1;fillColor=#cccccc;strokeColor=#999999;fontColor=#333333;fontSize=14;fontStyle=1" vertex="1" parent="1">
          <mxGeometry x="1010" y="190" width="80" height="40" as="geometry" />
        </mxCell>
        <mxCell id="NHOzWS8w5IpaU0_jdm7j-13" value="&lt;b&gt;Prezioa&lt;/b&gt;" style="whiteSpace=wrap;html=1;fillColor=#cccccc;strokeColor=#999999;fontColor=#333333;fontSize=14;fontStyle=1" vertex="1" parent="1">
          <mxGeometry x="1090" y="190" width="180" height="40" as="geometry" />
        </mxCell>
        <mxCell id="NHOzWS8w5IpaU0_jdm7j-14" value="&lt;b&gt;Sarrera Arrunta:&lt;/b&gt; FILM IZENBURUA LUZEA&lt;br&gt;Data: 2025/10/05 | Ordua: 18:30 | Zinema: Zentroa | Aretoa: 2" style="whiteSpace=wrap;html=1;fillColor=#ffffff;strokeColor=#999999;fontColor=#333333;align=left;verticalAlign=top;fontSize=12;" vertex="1" parent="1">
          <mxGeometry x="460" y="230" width="550" height="60" as="geometry" />
        </mxCell>
        <mxCell id="NHOzWS8w5IpaU0_jdm7j-15" value="1 x" style="whiteSpace=wrap;html=1;fillColor=#ffffff;strokeColor=#999999;fontColor=#333333;align=center;verticalAlign=middle;fontSize=14;" vertex="1" parent="1">
          <mxGeometry x="1010" y="230" width="80" height="60" as="geometry" />
        </mxCell>
        <mxCell id="NHOzWS8w5IpaU0_jdm7j-16" value="8.50 € &lt;span style=&quot;color:#ff0000;&quot;&gt;(Kendu)&lt;/span&gt;" style="whiteSpace=wrap;html=1;fillColor=#ffffff;strokeColor=#999999;fontColor=#333333;align=right;verticalAlign=middle;fontSize=14;" vertex="1" parent="1">
          <mxGeometry x="1090" y="230" width="180" height="60" as="geometry" />
        </mxCell>
        <mxCell id="NHOzWS8w5IpaU0_jdm7j-17" value="&lt;b&gt;Sarrera Gaztea:&lt;/b&gt; FILM IZENBURUA LUZEA&lt;br&gt;Data: 2025/10/05 | Ordua: 18:30 | Zinema: Zentroa | Aretoa: 2" style="whiteSpace=wrap;html=1;fillColor=#e6e6e6;strokeColor=#999999;fontColor=#333333;align=left;verticalAlign=top;fontSize=12;" vertex="1" parent="1">
          <mxGeometry x="460" y="290" width="550" height="60" as="geometry" />
        </mxCell>
        <mxCell id="NHOzWS8w5IpaU0_jdm7j-18" value="1 x" style="whiteSpace=wrap;html=1;fillColor=#e6e6e6;strokeColor=#999999;fontColor=#333333;align=center;verticalAlign=middle;fontSize=14;" vertex="1" parent="1">
          <mxGeometry x="1010" y="290" width="80" height="60" as="geometry" />
        </mxCell>
        <mxCell id="NHOzWS8w5IpaU0_jdm7j-19" value="6.50 € &lt;span style=&quot;color:#ff0000;&quot;&gt;(Kendu)&lt;/span&gt;" style="whiteSpace=wrap;html=1;fillColor=#e6e6e6;strokeColor=#999999;fontColor=#333333;align=right;verticalAlign=middle;fontSize=14;" vertex="1" parent="1">
          <mxGeometry x="1090" y="290" width="180" height="60" as="geometry" />
        </mxCell>
        <mxCell id="NHOzWS8w5IpaU0_jdm7j-20" value="&lt;b&gt;Gehigarria:&lt;/b&gt; Krisketa Handia + Refresko Handia" style="whiteSpace=wrap;html=1;fillColor=#ffffff;strokeColor=#999999;fontColor=#333333;align=left;verticalAlign=top;fontSize=12;" vertex="1" parent="1">
          <mxGeometry x="460" y="350" width="550" height="40" as="geometry" />
        </mxCell>
        <mxCell id="NHOzWS8w5IpaU0_jdm7j-21" value="1 x" style="whiteSpace=wrap;html=1;fillColor=#ffffff;strokeColor=#999999;fontColor=#333333;align=center;verticalAlign=middle;fontSize=14;" vertex="1" parent="1">
          <mxGeometry x="1010" y="350" width="80" height="40" as="geometry" />
        </mxCell>
        <mxCell id="NHOzWS8w5IpaU0_jdm7j-22" value="9.00 € &lt;span style=&quot;color:#ff0000;&quot;&gt;(Kendu)&lt;/span&gt;" style="whiteSpace=wrap;html=1;fillColor=#ffffff;strokeColor=#999999;fontColor=#333333;align=right;verticalAlign=middle;fontSize=14;" vertex="1" parent="1">
          <mxGeometry x="1090" y="350" width="180" height="40" as="geometry" />
        </mxCell>
        <mxCell id="NHOzWS8w5IpaU0_jdm7j-23" value="" style="whiteSpace=wrap;html=1;fillColor=#ffffff;strokeColor=#999999;fontColor=#333333;align=left;verticalAlign=top;fontSize=14;" vertex="1" parent="1">
          <mxGeometry x="1010" y="430" width="260" height="180" as="geometry" />
        </mxCell>
        <mxCell id="NHOzWS8w5IpaU0_jdm7j-24" value="&lt;b&gt;Erosketaren Laburpena&lt;/b&gt;&lt;br&gt;Produktuen Azpizuma: 24.00 €&lt;br&gt;Kudeaketa Gastuak: 2.00 €" style="text;html=1;strokeColor=none;fillColor=none;align=left;verticalAlign=top;whiteSpace=wrap;rounded=0;fontSize=14;" vertex="1" parent="1">
          <mxGeometry x="1020" y="440" width="240" height="80" as="geometry" />
        </mxCell>
        <mxCell id="NHOzWS8w5IpaU0_jdm7j-25" value="&lt;b&gt;GUZTIRA (BEZa barne):&lt;/b&gt;" style="text;html=1;strokeColor=none;fillColor=none;align=left;verticalAlign=middle;whiteSpace=wrap;rounded=0;fontSize=18;fontStyle=1;fontColor=#ff0000;" vertex="1" parent="1">
          <mxGeometry x="1020" y="540" width="150" height="20" as="geometry" />
        </mxCell>
        <mxCell id="NHOzWS8w5IpaU0_jdm7j-26" value="&lt;b&gt;26.00 €&lt;/b&gt;" style="text;html=1;strokeColor=none;fillColor=none;align=right;verticalAlign=middle;whiteSpace=wrap;rounded=0;fontSize=18;fontStyle=1;fontColor=#ff0000;" vertex="1" parent="1">
          <mxGeometry x="1170" y="540" width="90" height="20" as="geometry" />
        </mxCell>
        <mxCell id="NHOzWS8w5IpaU0_jdm7j-27" value="&lt;b&gt;OHARRA:&lt;/b&gt; *Sarrerak 30 minutuko epean ordaindu behar dira. Bestela, saskia hustu egingo da." style="text;html=1;strokeColor=none;fillColor=none;align=left;verticalAlign=middle;whiteSpace=wrap;rounded=0;fontSize=10;" vertex="1" parent="1">
          <mxGeometry x="460" y="580" width="540" height="30" as="geometry" />
        </mxCell>
        <mxCell id="NHOzWS8w5IpaU0_jdm7j-28" value="&lt;b&gt;Ordainketa Metodoa Aukeratu:&lt;/b&gt;&lt;br&gt;[Radio Button] Txartela | [Radio Button] PayPal | [Radio Button] Bizum" style="whiteSpace=wrap;html=1;fillColor=#ffffff;strokeColor=#999999;fontColor=#333333;align=left;verticalAlign=top;fontSize=14;" vertex="1" parent="1">
          <mxGeometry x="460" y="670" width="540" height="70" as="geometry" />
        </mxCell>
        <mxCell id="NHOzWS8w5IpaU0_jdm7j-29" value="&lt;b&gt;KONPULTU ETA ORDAINDU 26.00 €&lt;/b&gt;" style="whiteSpace=wrap;html=1;fillColor=#ff0000;fontColor=#ffffff;strokeColor=#990000;rounded=1;fontStyle=1;fontSize=18;cursor=pointer;" vertex="1" parent="1">
          <mxGeometry x="1010" y="670" width="260" height="70" as="geometry" />
        </mxCell>
        <mxCell id="NHOzWS8w5IpaU0_jdm7j-30" value="" style="whiteSpace=wrap;html=1;fillColor=#1a1a1a;strokeColor=none;fontColor=#ffffff;fontSize=10;" vertex="1" parent="1">
          <mxGeometry x="440" y="920" width="850" height="110" as="geometry" />
        </mxCell>
        <mxCell id="NHOzWS8w5IpaU0_jdm7j-31" value="&lt;u&gt;LOGO eta Testua&lt;/u&gt;" style="text;html=1;strokeColor=none;fillColor=none;align=left;verticalAlign=middle;whiteSpace=wrap;rounded=0;fontColor=#ffffff;fontSize=14;fontStyle=1" vertex="1" parent="1">
          <mxGeometry x="460" y="930" width="150" height="20" as="geometry" />
        </mxCell>
        <mxCell id="NHOzWS8w5IpaU0_jdm7j-32" value="&lt;u&gt;Nabigazioa&lt;/u&gt;&lt;br&gt;Orrialde Nagusia | Karteldegia | Informazioa | Balorazioak | Saskia" style="text;html=1;strokeColor=none;fillColor=none;align=left;verticalAlign=top;whiteSpace=wrap;rounded=0;fontColor=#cccccc;fontSize=12;" vertex="1" parent="1">
          <mxGeometry x="630" y="930" width="400" height="50" as="geometry" />
        </mxCell>
        <mxCell id="NHOzWS8w5IpaU0_jdm7j-33" value="&lt;u&gt;Legala Partea&lt;/u&gt;&lt;br&gt;Lege-Oharra | Pribatutasun-politika" style="text;html=1;strokeColor=none;fillColor=none;align=left;verticalAlign=top;whiteSpace=wrap;rounded=0;fontColor=#cccccc;fontSize=12;" vertex="1" parent="1">
          <mxGeometry x="1040" y="930" width="230" height="50" as="geometry" />
        </mxCell>
        <mxCell id="NHOzWS8w5IpaU0_jdm7j-34" value="© 2025 ZINEMA.EUS" style="text;html=1;strokeColor=none;fillColor=none;align=center;verticalAlign=middle;whiteSpace=wrap;rounded=0;fontColor=#666666;fontSize=10;" vertex="1" parent="1">
          <mxGeometry x="740" y="990" width="150" height="20" as="geometry" />
        </mxCell>
      </root>
    </mxGraphModel>
  </diagram>
</mxfile>
